# xmcd CD database file
#
# Track frame offsets:
#	150
#	21652
#	38482
#	54237
#	71760
#	94243
#	108930
#	130041
#	147715
#	165460
#
# Disc length: 2432 seconds
#
# Revision: 0
# Processed by: cddbd v1.5.2PL0 Copyright (c) Steve Scherf et al.
# Submitted via: CDex 1.70beta2
#
DISCID=88097e0a
DTITLE=Salvatore de Nardo - Sinceramente
DYEAR=2002
DGENRE=Italo
TTITLE0=Ca speranze e te vede
TTITLE1=E viva gli sposi
TTITLE2=E poi vedrai
TTITLE3=Ancore nu si
TTITLE4=Occhi d´amore
TTITLE5=Amica Italia
TTITLE6=Ma chi si tu
TTITLE7=Si Napule e melodia
TTITLE8=Vivo come te
TTITLE9=Tu si nate pe canta
EXTD=YEAR: 2002
EXTT0=
EXTT1=
EXTT2=
EXTT3=
EXTT4=
EXTT5=
EXTT6=
EXTT7=
EXTT8=
EXTT9=
PLAYORDER=
